<svg width="32" height="32" viewBox="0 0 32 32" fill="none" xmlns="http://www.w3.org/2000/svg">
<g clip-path="url(#clip0_133:73)">
<path fill-rule="evenodd" clip-rule="evenodd" d="M3 1.73682H29C29.7946 1.74024 30.5557 2.05741 31.1175 2.61928C31.6794 3.18115 31.9966 3.94222 32 4.73682V11.703H0V4.73682C0.00274546 3.94201 0.319698 3.18054 0.881713 2.61853C1.44373 2.05651 2.2052 1.73956 3 1.73682ZM9.45573 4.27588C9.93525 4.27588 10.404 4.41807 10.8027 4.68448C11.2014 4.95088 11.5122 5.32953 11.6957 5.77255C11.8792 6.21557 11.9272 6.70305 11.8336 7.17335C11.7401 7.64365 11.5092 8.07565 11.1701 8.41472C10.831 8.75379 10.399 8.9847 9.92872 9.07825C9.45842 9.1718 8.97094 9.12379 8.52792 8.94029C8.08491 8.75678 7.70625 8.44603 7.43985 8.04733C7.17344 7.64862 7.03125 7.17987 7.03125 6.70036C7.03125 6.05735 7.28669 5.44067 7.74136 4.98599C8.19604 4.53131 8.81272 4.27588 9.45573 4.27588ZM22.4219 4.27588C22.9014 4.27588 23.3701 4.41807 23.7688 4.68448C24.1675 4.95088 24.4783 5.32953 24.6618 5.77255C24.8453 6.21557 24.8933 6.70305 24.7998 7.17335C24.7062 7.64365 24.4753 8.07565 24.1362 8.41472C23.7972 8.75379 23.3652 8.9847 22.8949 9.07825C22.4246 9.1718 21.9371 9.12379 21.4941 8.94029C21.0511 8.75678 20.6724 8.44603 20.406 8.04733C20.1396 7.64862 19.9974 7.17987 19.9974 6.70036C19.9974 6.05735 20.2528 5.44067 20.7075 4.98599C21.1622 4.53131 21.7789 4.27588 22.4219 4.27588Z" fill="#EF4136"/>
<path d="M29 31.5103H3C2.20541 31.5068 1.44433 31.1897 0.882465 30.6278C0.320597 30.0659 0.0034265 29.3048 0 28.5103L0 10.4165H32V28.505C31.9986 29.3008 31.6823 30.0636 31.1201 30.6267C30.558 31.1898 29.7957 31.5075 29 31.5103Z" fill="#808080"/>
<path fill-rule="evenodd" clip-rule="evenodd" d="M3.32031 30.5493H28.6797C29.3046 30.5466 29.9031 30.2971 30.345 29.8552C30.7869 29.4134 31.0363 28.8148 31.0391 28.1899V10.4165H0.960938V28.1847C0.962997 28.8098 1.21223 29.4088 1.65426 29.8508C2.09628 30.2928 2.6952 30.542 3.32031 30.5441V30.5493Z" fill="#E6E6E6"/>
<path d="M10.1198 26.242V17.1873H8.23178V15.2134L10.474 14.2524H13.2266V26.2316L10.1198 26.242ZM18.5182 26.3384C18.1158 26.3392 17.714 26.3043 17.3177 26.2342C16.9413 26.1722 16.5799 26.0397 16.2526 25.8436C15.9308 25.6427 15.6704 25.3571 15.5 25.0181C15.2945 24.5751 15.198 24.0893 15.2188 23.6014V22.0155C15.2192 21.7511 15.2569 21.4881 15.3307 21.2342C15.4077 20.9909 15.5335 20.7658 15.7005 20.5728C15.8809 20.3574 16.1303 20.2111 16.4063 20.1587C16.1331 20.0298 15.8987 19.8313 15.7266 19.5832C15.5941 19.3707 15.5146 19.1296 15.4948 18.88C15.4714 18.6196 15.4609 18.3592 15.4609 18.078V16.7342C15.4348 16.2174 15.5784 15.7061 15.8698 15.2785C16.1422 14.9176 16.5156 14.6457 16.9427 14.4972C17.3975 14.3359 17.8769 14.2549 18.3594 14.2576H20.6328C21.118 14.2534 21.6002 14.3345 22.0573 14.4972C22.4814 14.6473 22.8519 14.9191 23.1224 15.2785C23.4138 15.7061 23.5574 16.2174 23.5313 16.7342V18.078C23.5287 18.2278 23.5174 18.3774 23.4974 18.5259C23.4746 18.7301 23.4319 18.9316 23.3698 19.1274C23.3117 19.3244 23.2133 19.5071 23.0807 19.6639C22.946 19.8131 22.7601 19.9061 22.5599 19.9243C22.7225 19.9525 22.8778 20.0131 23.0165 20.1026C23.1552 20.1921 23.2745 20.3086 23.3672 20.4452C23.5343 20.6978 23.647 20.9825 23.6979 21.2811C23.7413 21.5236 23.7657 21.7691 23.7708 22.0155V23.6014C23.7708 24.3827 23.625 24.966 23.3386 25.354C23.059 25.7362 22.6576 26.0117 22.2005 26.1353C21.7055 26.2732 21.1935 26.3407 20.6797 26.3358L18.5182 26.3384ZM19.0781 23.7134H19.9089C20.263 23.7134 20.474 23.6457 20.5495 23.5129C20.632 23.3465 20.6705 23.1618 20.6615 22.9764V22.2238C20.6692 22.0281 20.6033 21.8367 20.4766 21.6873C20.4108 21.6156 20.33 21.5593 20.24 21.5224C20.15 21.4855 20.0529 21.4689 19.9557 21.4738H19.0781C18.9638 21.4714 18.8499 21.4899 18.7422 21.5285C18.6523 21.5615 18.5718 21.616 18.5078 21.6873C18.4486 21.7593 18.4027 21.8414 18.3724 21.9295C18.3402 22.0243 18.3244 22.1238 18.3255 22.2238V22.9764C18.3134 23.0788 18.3216 23.1826 18.3498 23.2819C18.3779 23.3811 18.4254 23.4738 18.4896 23.5545C18.6584 23.6783 18.8673 23.735 19.0755 23.7134H19.0781ZM19.0781 18.8462H19.9089C20.05 18.8554 20.1907 18.8218 20.3125 18.7498C20.3965 18.6867 20.4526 18.5933 20.4688 18.4894C20.494 18.331 20.5053 18.1707 20.5026 18.0103V17.5024C20.5026 17.1925 20.4401 17.0103 20.3177 16.9582C20.1883 16.904 20.0492 16.8765 19.9089 16.8774H19.0781C18.9263 16.8696 18.775 16.9 18.638 16.966C18.5365 17.0259 18.4844 17.203 18.4844 17.5024V17.9998C18.4844 18.3827 18.5313 18.6196 18.6224 18.7108C18.7504 18.8144 18.9143 18.8631 19.0781 18.8462Z" fill="#1A1A1A"/>
<path fill-rule="evenodd" clip-rule="evenodd" d="M22.4219 3.81006C23.0913 3.80934 23.7402 4.04077 24.2581 4.4649C24.776 4.88903 25.1308 5.47962 25.262 6.13603C25.3933 6.79244 25.2929 7.47405 24.9779 8.06471C24.6629 8.65537 24.1528 9.11853 23.5346 9.37527C22.9164 9.63201 22.2283 9.66643 21.5875 9.47267C20.9468 9.27892 20.3931 8.86897 20.0207 8.3127C19.6483 7.75642 19.4804 7.08823 19.5454 6.422C19.6105 5.75577 19.9046 5.13272 20.3776 4.65902L20.4062 4.63298C20.9446 4.10552 21.6682 3.81009 22.4219 3.81006ZM22.4219 4.27621C22.9014 4.27621 23.3701 4.4184 23.7688 4.6848C24.1675 4.95121 24.4783 5.32986 24.6618 5.77288C24.8453 6.21589 24.8933 6.70338 24.7998 7.17368C24.7062 7.64398 24.4753 8.07598 24.1362 8.41505C23.7972 8.75412 23.3652 8.98503 22.8949 9.07858C22.4246 9.17213 21.9371 9.12412 21.4941 8.94061C21.051 8.75711 20.6724 8.44636 20.406 8.04766C20.1396 7.64895 19.9974 7.1802 19.9974 6.70069C19.9974 6.05767 20.2528 5.441 20.7075 4.98632C21.1622 4.53164 21.7789 4.27621 22.4219 4.27621Z" fill="#C72B20"/>
<path fill-rule="evenodd" clip-rule="evenodd" d="M9.45574 3.81006C10.1251 3.80934 10.7741 4.04077 11.292 4.4649C11.8099 4.88903 12.1647 5.47962 12.2959 6.13603C12.4272 6.79244 12.3267 7.47405 12.0117 8.06471C11.6968 8.65537 11.1867 9.11853 10.5685 9.37527C9.95027 9.63201 9.26216 9.66643 8.62141 9.47267C7.98066 9.27892 7.42693 8.86897 7.05456 8.3127C6.68219 7.75642 6.51424 7.08823 6.57932 6.422C6.6444 5.75577 6.93849 5.13272 7.41147 4.65902L7.44012 4.63298C7.97876 4.106 8.70219 3.81064 9.45574 3.81006ZM9.45574 4.27621C9.93526 4.27621 10.404 4.4184 10.8027 4.6848C11.2014 4.95121 11.5122 5.32986 11.6957 5.77288C11.8792 6.21589 11.9272 6.70338 11.8336 7.17368C11.7401 7.64398 11.5092 8.07598 11.1701 8.41505C10.831 8.75412 10.399 8.98503 9.92873 9.07858C9.45843 9.17213 8.97095 9.12412 8.52794 8.94061C8.08492 8.75711 7.70627 8.44636 7.43986 8.04766C7.17346 7.64895 7.03126 7.1802 7.03126 6.70069C7.03126 6.05767 7.2867 5.441 7.74138 4.98632C8.19606 4.53164 8.81273 4.27621 9.45574 4.27621Z" fill="#C72B20"/>
<path d="M20.9739 1.1875C20.9739 0.520833 21.6146 0 22.4219 0C23.2291 0 23.8698 0.520833 23.8698 1.1875V6.71094C23.8698 7.36458 23.2239 7.89844 22.4219 7.89844C21.6198 7.89844 20.9739 7.3776 20.9739 6.71094V1.1875Z" fill="#1A1A1A"/>
<path d="M8.00781 1.1875C8.00781 0.520833 8.65625 0 9.45573 0C10.2552 0 10.9036 0.520833 10.9036 1.1875V6.71094C10.9036 7.36458 10.2578 7.89844 9.45573 7.89844C8.65365 7.89844 8.00781 7.3776 8.00781 6.71094V1.1875Z" fill="#1A1A1A"/>
</g>
<defs>
<clipPath id="clip0_133:73">
<rect width="32" height="31.5104" fill="white"/>
</clipPath>
</defs>
</svg>
