<svg width="32" height="32" viewBox="0 0 32 32" fill="none" xmlns="http://www.w3.org/2000/svg">
<g clip-path="url(#clip0_133:116)">
<path fill-rule="evenodd" clip-rule="evenodd" d="M3 1.73682H29C29.7946 1.74024 30.5557 2.05741 31.1175 2.61928C31.6794 3.18115 31.9966 3.94222 32 4.73682V11.703H0V4.73682C0.00274546 3.94201 0.319698 3.18054 0.881713 2.61853C1.44373 2.05651 2.2052 1.73956 3 1.73682ZM9.45573 4.27588C9.93525 4.27588 10.404 4.41807 10.8027 4.68448C11.2014 4.95088 11.5122 5.32953 11.6957 5.77255C11.8792 6.21557 11.9272 6.70305 11.8336 7.17335C11.7401 7.64365 11.5092 8.07565 11.1701 8.41472C10.831 8.75379 10.399 8.9847 9.92872 9.07825C9.45842 9.1718 8.97094 9.12379 8.52792 8.94029C8.08491 8.75678 7.70625 8.44603 7.43985 8.04733C7.17344 7.64862 7.03125 7.17987 7.03125 6.70036C7.03125 6.05735 7.28669 5.44067 7.74136 4.98599C8.19604 4.53131 8.81272 4.27588 9.45573 4.27588ZM22.4219 4.27588C22.9014 4.27588 23.3701 4.41807 23.7688 4.68448C24.1675 4.95088 24.4783 5.32953 24.6618 5.77255C24.8453 6.21557 24.8933 6.70305 24.7998 7.17335C24.7062 7.64365 24.4753 8.07565 24.1362 8.41472C23.7972 8.75379 23.3652 8.9847 22.8949 9.07825C22.4246 9.1718 21.9371 9.12379 21.4941 8.94029C21.0511 8.75678 20.6724 8.44603 20.406 8.04733C20.1396 7.64862 19.9974 7.17987 19.9974 6.70036C19.9974 6.05735 20.2528 5.44067 20.7075 4.98599C21.1622 4.53131 21.7789 4.27588 22.4219 4.27588Z" fill="#EF4136"/>
<path d="M29 31.5103H3C2.20541 31.5068 1.44433 31.1897 0.882465 30.6278C0.320597 30.0659 0.0034265 29.3048 0 28.5103L0 10.4165H32V28.505C31.9986 29.3008 31.6823 30.0636 31.1201 30.6267C30.558 31.1898 29.7957 31.5075 29 31.5103Z" fill="#808080"/>
<path fill-rule="evenodd" clip-rule="evenodd" d="M3.32031 30.5493H28.6797C29.3046 30.5466 29.9031 30.2971 30.345 29.8552C30.7869 29.4134 31.0363 28.8148 31.0391 28.1899V10.4165H0.960938V28.1847C0.962997 28.8098 1.21223 29.4088 1.65426 29.8508C2.09628 30.2928 2.6952 30.542 3.32031 30.5441V30.5493Z" fill="#E6E6E6"/>
<path d="M15.0234 26.3387C14.621 26.3394 14.2192 26.3045 13.8229 26.2345C13.4474 26.1722 13.0869 26.0397 12.7604 25.8439C12.4386 25.643 12.1782 25.3574 12.0078 25.0184C11.7997 24.576 11.7006 24.0903 11.7188 23.6017V22.0158C11.7178 21.7513 11.7556 21.4881 11.8307 21.2345C11.9078 20.9901 12.0356 20.7647 12.2057 20.5731C12.3889 20.3635 12.6377 20.2221 12.9115 20.172C12.6398 20.0381 12.4081 19.8351 12.2396 19.5835C12.1071 19.3711 12.0276 19.1299 12.0078 18.8804C11.987 18.6199 11.9766 18.3595 11.9766 18.0783V16.7345C11.9483 16.2174 12.0921 15.7056 12.3854 15.2788C12.6564 14.9175 13.0291 14.6455 13.4557 14.4976C13.9106 14.3366 14.3899 14.2555 14.8724 14.258H17.1354C17.6206 14.2538 18.1028 14.3348 18.5599 14.4976C18.9844 14.647 19.355 14.9188 19.625 15.2788C19.9184 15.7056 20.0621 16.2174 20.0339 16.7345V18.0783C20.0311 18.228 20.0206 18.3775 20.0026 18.5262C19.9789 18.7305 19.9352 18.9319 19.8724 19.1278C19.8152 19.3245 19.7176 19.5072 19.5859 19.6642C19.4508 19.8128 19.2651 19.9056 19.0651 19.9246C19.2281 19.9528 19.3838 20.0134 19.5229 20.1028C19.6621 20.1923 19.7818 20.3088 19.875 20.4455C20.0352 20.6965 20.1433 20.9773 20.1927 21.271C20.2374 21.5133 20.2618 21.759 20.2656 22.0054V23.5913C20.2656 24.3726 20.1224 24.9559 19.8333 25.3439C19.5553 25.7265 19.1546 26.0022 18.6979 26.1252C18.2029 26.2631 17.6909 26.3306 17.1771 26.3257L15.0234 26.3387ZM15.5833 23.7137H16.4062C16.7578 23.7137 16.9714 23.646 17.0469 23.5132C17.1282 23.3464 17.1666 23.1621 17.1589 22.9767V22.2241C17.1644 22.0288 17.0987 21.8381 16.974 21.6877C16.9063 21.6141 16.8229 21.5568 16.73 21.5198C16.6372 21.4828 16.5372 21.4672 16.4375 21.4741H15.5833C15.469 21.4719 15.3551 21.4904 15.2474 21.5288C15.1578 21.5611 15.078 21.6158 15.0156 21.6877C14.9556 21.7591 14.9096 21.8413 14.8802 21.9298C14.8503 22.0249 14.8379 22.1246 14.8437 22.2241V22.9767C14.8323 23.0795 14.8414 23.1835 14.8704 23.2828C14.8995 23.382 14.9479 23.4745 15.013 23.5548C15.1808 23.6787 15.3889 23.7354 15.5964 23.7137H15.5833ZM15.5833 18.8465H16.4062C16.5518 18.8593 16.6977 18.8256 16.8229 18.7502C16.9059 18.6865 16.961 18.5932 16.9766 18.4897C16.9995 18.3311 17.0099 18.1709 17.0078 18.0106V17.5028C17.0078 17.1929 16.9479 17.0106 16.8229 16.9585C16.691 16.9033 16.5492 16.8758 16.4062 16.8778H15.5729C15.4211 16.8699 15.2698 16.9003 15.1328 16.9663C15.0312 17.0262 14.9818 17.2033 14.9818 17.5028V18.0002C14.9818 18.383 15.026 18.6199 15.1172 18.7111C15.2455 18.8142 15.4091 18.8629 15.5729 18.8465H15.5833Z" fill="#1A1A1A"/>
<path fill-rule="evenodd" clip-rule="evenodd" d="M22.4219 3.81006C23.0913 3.80934 23.7402 4.04077 24.2581 4.4649C24.776 4.88903 25.1308 5.47962 25.2621 6.13603C25.3933 6.79244 25.2929 7.47405 24.9779 8.06471C24.6629 8.65537 24.1528 9.11853 23.5346 9.37527C22.9164 9.63201 22.2283 9.66643 21.5875 9.47267C20.9468 9.27892 20.3931 8.86897 20.0207 8.3127C19.6483 7.75642 19.4804 7.08823 19.5455 6.422C19.6105 5.75577 19.9046 5.13272 20.3776 4.65902L20.4063 4.63298C20.9446 4.10552 21.6682 3.81009 22.4219 3.81006ZM22.4219 4.27621C22.9014 4.27621 23.3701 4.4184 23.7688 4.6848C24.1675 4.95121 24.4783 5.32986 24.6618 5.77288C24.8453 6.21589 24.8933 6.70338 24.7998 7.17368C24.7062 7.64398 24.4753 8.07598 24.1362 8.41505C23.7972 8.75412 23.3652 8.98503 22.8949 9.07858C22.4246 9.17213 21.9371 9.12412 21.4941 8.94061C21.0511 8.75711 20.6724 8.44636 20.406 8.04766C20.1396 7.64895 19.9974 7.1802 19.9974 6.70069C19.9974 6.05767 20.2528 5.441 20.7075 4.98632C21.1622 4.53164 21.7789 4.27621 22.4219 4.27621Z" fill="#C72B20"/>
<path fill-rule="evenodd" clip-rule="evenodd" d="M9.45573 3.81006C10.1251 3.80934 10.7741 4.04077 11.292 4.4649C11.8099 4.88903 12.1647 5.47962 12.2959 6.13603C12.4271 6.79244 12.3267 7.47405 12.0117 8.06471C11.6967 8.65537 11.1867 9.11853 10.5685 9.37527C9.95025 9.63201 9.26215 9.66643 8.6214 9.47267C7.98065 9.27892 7.42691 8.86897 7.05455 8.3127C6.68218 7.75642 6.51423 7.08823 6.57931 6.422C6.64439 5.75577 6.93848 5.13272 7.41146 4.65902L7.4401 4.63298C7.97874 4.106 8.70217 3.81064 9.45573 3.81006ZM9.45573 4.27621C9.93524 4.27621 10.404 4.4184 10.8027 4.6848C11.2014 4.95121 11.5122 5.32986 11.6957 5.77288C11.8792 6.21589 11.9272 6.70338 11.8336 7.17368C11.7401 7.64398 11.5092 8.07598 11.1701 8.41505C10.831 8.75412 10.399 8.98503 9.92872 9.07858C9.45842 9.17213 8.97094 9.12412 8.52792 8.94061C8.0849 8.75711 7.70625 8.44636 7.43985 8.04766C7.17344 7.64895 7.03125 7.1802 7.03125 6.70069C7.03125 6.05767 7.28668 5.441 7.74136 4.98632C8.19604 4.53164 8.81272 4.27621 9.45573 4.27621Z" fill="#C72B20"/>
<path d="M20.974 1.1875C20.974 0.520833 21.6146 0 22.4219 0C23.2292 0 23.8698 0.520833 23.8698 1.1875V6.71094C23.8698 7.36458 23.224 7.89844 22.4219 7.89844C21.6198 7.89844 20.974 7.3776 20.974 6.71094V1.1875Z" fill="#1A1A1A"/>
<path d="M8.00781 1.1875C8.00781 0.520833 8.65625 0 9.45573 0C10.2552 0 10.9036 0.520833 10.9036 1.1875V6.71094C10.9036 7.36458 10.2578 7.89844 9.45573 7.89844C8.65365 7.89844 8.00781 7.3776 8.00781 6.71094V1.1875Z" fill="#1A1A1A"/>
</g>
<defs>
<clipPath id="clip0_133:116">
<rect width="32" height="31.5104" fill="white"/>
</clipPath>
</defs>
</svg>
