<svg width="32" height="36" viewBox="0 0 32 36" fill="none" xmlns="http://www.w3.org/2000/svg">
<g clip-path="url(#clip0_141:106)">
<path fill-rule="evenodd" clip-rule="evenodd" d="M25.5346 24.2539C29.4714 25.3683 32 27.149 32 29.1567C32 32.5272 24.8381 35.2588 16.0015 35.2588C7.16495 35.2588 0 32.5272 0 29.1567C0 27.1005 2.66187 25.2836 6.74401 24.1782L7.1922 24.7839C7.49503 25.1988 7.83723 25.6106 8.17943 26.0134C5.32374 26.7038 3.49465 27.7698 3.49465 28.966C3.49465 31.0494 9.03341 32.7392 15.8683 32.7392C22.7031 32.7392 28.2419 31.0494 28.2419 28.966C28.2419 27.8546 26.6551 26.8462 24.1355 26.1618C24.6322 25.5561 25.0985 24.908 25.5346 24.2539Z" fill="white"/>
<path fill-rule="evenodd" clip-rule="evenodd" d="M21.2556 25.0685C19.9181 26.5422 18.3773 27.8179 16.6799 28.8569C16.5738 28.9347 16.4467 28.9783 16.3152 28.9821C16.1838 28.9859 16.0543 28.9496 15.944 28.8781C13.5231 27.3511 11.3738 25.4311 9.58457 23.197C7.26792 20.2898 5.79314 17.0617 5.29347 13.9516C4.7938 10.8416 5.26016 7.76784 6.82882 5.30281C7.46626 4.29989 8.26782 3.41131 9.19997 2.67425C11.4106 0.908751 13.9302 -0.0179076 16.4558 0.000262158C18.2157 0.0486501 19.9357 0.536064 21.4593 1.41821C22.983 2.30036 24.262 3.54927 25.1803 5.05146C26.8671 7.82841 27.2304 11.3715 26.4915 14.96C25.6716 18.7309 23.8647 22.2162 21.2556 25.0594V25.0685ZM15.9773 5.60564C17.0483 5.60564 18.0953 5.92327 18.9858 6.51837C19.8763 7.11347 20.5703 7.95929 20.98 8.94886C21.3897 9.93842 21.4968 11.0273 21.2876 12.0777C21.0785 13.1281 20.5625 14.0929 19.8049 14.85C19.0474 15.6071 18.0823 16.1226 17.0318 16.3312C15.9812 16.5397 14.8925 16.4321 13.9031 16.0218C12.9138 15.6115 12.0684 14.917 11.4738 14.0262C10.8792 13.1354 10.5621 12.0882 10.5627 11.0172C10.5627 10.3063 10.7028 9.60234 10.9749 8.94559C11.2471 8.28883 11.646 7.69213 12.1488 7.18958C12.6516 6.68703 13.2485 6.28848 13.9055 6.0167C14.5624 5.74492 15.2664 5.60524 15.9773 5.60564Z" fill="white"/>
</g>
<defs>
<clipPath id="clip0_141:106">
<rect width="32" height="35.2584" fill="white"/>
</clipPath>
</defs>
</svg>
