<svg width="32" height="32" viewBox="0 0 32 32" fill="none" xmlns="http://www.w3.org/2000/svg">
<g clip-path="url(#clip0_141:111)">
<path fill-rule="evenodd" clip-rule="evenodd" d="M16 1.57518e-05C19.7031 -0.00104276 23.292 1.28201 26.1551 3.63053C29.0182 5.97905 30.9784 9.24771 31.7016 12.8795C32.4248 16.5113 31.8663 20.2815 30.1212 23.5477C28.3761 26.8138 25.5525 29.3738 22.1314 30.7913C18.7104 32.2089 14.9036 32.3963 11.3599 31.3217C7.81614 30.247 4.75467 27.9768 2.69718 24.8979C0.639692 21.819 -0.286506 18.1219 0.0764207 14.4366C0.439347 10.7513 2.06894 7.30593 4.6875 4.68752C6.17103 3.19905 7.93424 2.01862 9.87568 1.21416C11.8171 0.409688 13.8985 -0.0029385 16 1.57518e-05ZM12.526 14.6328C13.0432 15.5963 13.6811 16.4898 14.4245 17.2917C15.2899 18.2004 16.3079 18.9505 17.4323 19.5078C17.4729 19.5276 17.5174 19.5379 17.5625 19.5379C17.6076 19.5379 17.6522 19.5276 17.6927 19.5078C17.829 19.4451 17.9519 19.3567 18.0547 19.2474C18.1725 19.1229 18.2829 18.9916 18.3854 18.8542C18.8672 18.2188 19.4662 17.4297 20.3099 17.8125L20.362 17.8412L23.1771 19.4714L23.2057 19.4896C23.3774 19.6135 23.5151 19.7786 23.6062 19.9698C23.6972 20.161 23.7386 20.372 23.7266 20.5834C23.7074 21.0764 23.566 21.557 23.3151 21.9818C23.004 22.5161 22.5292 22.9361 21.9609 23.1797C21.4352 23.4067 20.8804 23.5592 20.3125 23.6328C19.4567 23.758 18.5835 23.6849 17.7604 23.4193C16.8562 23.1168 15.9942 22.7003 15.1953 22.1797L15.1172 22.1354C14.7005 21.875 14.25 21.5964 13.8151 21.2682C12.0517 19.9379 10.5766 18.2634 9.47917 16.3464C8.57813 14.7162 8.08855 12.961 8.35417 11.2839C8.4652 10.3902 8.90304 9.56924 9.58334 8.97918C10.2798 8.44859 11.1584 8.21628 12.026 8.33335C12.0848 8.3375 12.1417 8.35637 12.1913 8.38822C12.2409 8.42008 12.2817 8.46389 12.3099 8.51564L14.1172 11.5625C14.2376 11.7003 14.316 11.8696 14.3432 12.0505C14.3704 12.2314 14.3453 12.4163 14.2708 12.5834C14.1129 12.9003 13.8739 13.1698 13.5781 13.3646C13.4818 13.4479 13.3646 13.5313 13.2422 13.625C12.8385 13.9167 12.3776 14.2552 12.5365 14.6667V14.6537L12.526 14.6328Z" fill="white"/>
</g>
<defs>
<clipPath id="clip0_141:111">
<rect width="32" height="32" fill="white"/>
</clipPath>
</defs>
</svg>
