<svg width="65" height="65" viewBox="0 0 65 65" fill="none" xmlns="http://www.w3.org/2000/svg">
<path d="M18.9583 29.7917V35.2083H46.0417V29.7917C46.0417 24.7542 49.5083 20.5563 54.1667 19.3375V16.25C54.1667 11.7813 50.5104 8.125 46.0417 8.125H18.9583C14.4896 8.125 10.8333 11.7813 10.8333 16.25V19.3375C15.4917 20.5563 18.9583 24.7542 18.9583 29.7917Z" fill="#000F2C"/>
<path d="M56.875 24.375C53.8958 24.375 51.4583 26.8125 51.4583 29.7917V40.625H13.5417V29.7917C13.5417 26.8125 11.1042 24.375 8.12499 24.375C5.14583 24.375 2.70833 26.8125 2.70833 29.7917V43.3333C2.70833 47.8021 6.36458 51.4583 10.8333 51.4583V54.1667C10.8333 55.6562 12.0521 56.875 13.5417 56.875C15.0312 56.875 16.25 55.6562 16.25 54.1667V51.4583H48.75V54.1667C48.75 55.6562 49.9687 56.875 51.4583 56.875C52.9479 56.875 54.1667 55.6562 54.1667 54.1667V51.4583C58.6354 51.4583 62.2917 47.8021 62.2917 43.3333V29.7917C62.2917 26.8125 59.8542 24.375 56.875 24.375Z" fill="#000F2C"/>
</svg>
