<svg width="65" height="39" viewBox="0 0 65 39" fill="none" xmlns="http://www.w3.org/2000/svg">
<g clip-path="url(#clip0_12:14)">
<path d="M34.2791 23.2339C31.2186 23.2339 28.1052 23.5622 25.1083 23.1069C23.2234 22.8209 21.529 21.3384 19.7499 20.3959C21.3702 19.4958 22.9268 18.0344 24.6424 17.812C28.6347 17.3037 32.7012 17.4731 36.7359 17.2084C49.1365 16.4247 56.2423 20.0147 53.1289 35.0627C32.8812 41.5225 14.4656 40.4211 0 23.1175L0.614207 21.0736C2.66862 21.8149 5.09368 22.1326 6.7245 23.361C14.1373 29.1854 22.4185 28.7089 30.8904 27.078C32.2461 26.6531 33.5443 26.0627 34.7556 25.3201L34.2791 23.2339Z" fill="#000F2C"/>
<path d="M34.0673 12.6018L33.2731 8.55653C30.4774 8.55653 27.7981 8.22825 25.246 8.66243C23.1907 8.99703 21.2673 9.89099 19.6864 11.2463C16.9436 13.8091 14.3915 14.6986 11.4475 11.9347C10.7591 11.2558 10.2139 10.4456 9.8444 9.55205C9.4749 8.65854 9.28857 7.69992 9.29648 6.73306C9.30438 5.76619 9.50634 4.81075 9.8904 3.92339C10.2745 3.03604 10.8328 2.23483 11.5323 1.56729C14.5503 -1.05898 17.1025 -0.190614 19.7711 2.54155C21.2374 4.01356 23.1605 4.94338 25.2248 5.1784C30.8904 5.51727 36.5982 5.29489 42.6132 5.29489L40.1564 12.6018H34.0673ZM19.4852 6.57625L15.3234 2.78511C14.2644 4.29945 12.6336 5.70789 12.3477 7.3493C12.1782 8.26002 14.2538 9.56256 15.3128 10.6851L19.4852 6.57625Z" fill="#000F2C"/>
<path d="M55.8822 20.1205H65V38.1231H55.8822V20.1205Z" fill="#000F2C"/>
</g>
<defs>
<clipPath id="clip0_12:14">
<rect width="65" height="38.695" fill="white"/>
</clipPath>
</defs>
</svg>
