<svg width="67" height="77" viewBox="0 0 67 77" fill="none" xmlns="http://www.w3.org/2000/svg">
<g clip-path="url(#clip0_108:21)">
<path fill-rule="evenodd" clip-rule="evenodd" d="M2.63051 0H64.357C65.0541 0.00165482 65.7223 0.280128 66.2152 0.77451C66.7082 1.26889 66.9858 1.93894 66.9875 2.6381V74.3619C66.9842 75.0606 66.706 75.7297 66.2134 76.2237C65.7208 76.7177 65.0536 76.9967 64.357 77H2.63051C1.93387 76.9967 1.2667 76.7177 0.77409 76.2237C0.281484 75.7297 0.00328611 75.0606 0 74.3619L0 2.6381C0.00328611 1.93945 0.281484 1.27035 0.77409 0.776323C1.2667 0.282296 1.93387 0.00329559 2.63051 0V0ZM43.1129 50.55C43.354 50.3966 43.6442 50.3408 43.9248 50.394C44.2053 50.4472 44.4552 50.6054 44.6237 50.8366C44.7922 51.0678 44.8668 51.3546 44.8322 51.6388C44.7976 51.9231 44.6565 52.1835 44.4376 52.3673L41.3947 54.6169C41.1536 54.7704 40.8634 54.8261 40.5828 54.7729C40.3023 54.7197 40.0524 54.5615 39.8839 54.3303C39.7154 54.0991 39.6408 53.8123 39.6754 53.5281C39.71 53.2438 39.8511 52.9834 40.07 52.7996L43.1129 50.55ZM55.0596 40.524C55.1709 40.4206 55.3019 40.3408 55.4447 40.2895C55.5876 40.2382 55.7393 40.2164 55.8908 40.2254C56.0422 40.2345 56.1903 40.2741 56.3261 40.3421C56.4618 40.41 56.5825 40.5048 56.6808 40.6207C56.7791 40.7366 56.853 40.8713 56.898 41.0166C56.943 41.1619 56.9583 41.3148 56.9428 41.4662C56.9274 41.6176 56.8816 41.7643 56.8081 41.8974C56.7347 42.0306 56.6351 42.1474 56.5154 42.241L47.4242 49.9548C47.3163 50.0717 47.1849 50.1643 47.0387 50.2267C46.8925 50.289 46.7348 50.3195 46.576 50.3163C46.4172 50.3131 46.2608 50.2761 46.1173 50.2079C45.9737 50.1397 45.8462 50.0418 45.7431 49.9206C45.64 49.7994 45.5637 49.6576 45.5192 49.5047C45.4747 49.3518 45.463 49.1911 45.4848 49.0333C45.5067 48.8755 45.5617 48.7241 45.6461 48.5892C45.7305 48.4542 45.8425 48.3387 45.9746 48.2503L55.0533 40.5115L55.0596 40.524ZM55.6094 49.4534C55.8398 49.2623 56.1364 49.1708 56.434 49.199C56.7317 49.2272 57.0059 49.3728 57.1965 49.6038C57.3871 49.8349 57.4783 50.1323 57.4502 50.4308C57.4221 50.7293 57.2769 51.0044 57.0465 51.1955L42.7443 62.9071C42.5139 63.0949 42.2187 63.1833 41.9234 63.1527C41.6281 63.1222 41.357 62.9752 41.1697 62.7442C40.9825 62.5132 40.8944 62.2171 40.9249 61.9209C40.9553 61.6248 41.1018 61.3529 41.3322 61.1651L55.6094 49.4534ZM23.231 26.663C23.1124 26.7563 22.9764 26.8248 22.8309 26.8643C22.6855 26.9038 22.5336 26.9136 22.3843 26.8931C22.2349 26.8726 22.0913 26.8223 21.9617 26.745C21.8322 26.6677 21.7195 26.5651 21.6303 26.4433C21.5411 26.3215 21.4772 26.183 21.4424 26.0359C21.4076 25.8888 21.4027 25.7363 21.4279 25.5872C21.453 25.4382 21.5078 25.2958 21.5889 25.1684C21.6701 25.0411 21.7759 24.9313 21.9001 24.8458L24.943 22.5962C25.1866 22.4234 25.4887 22.3546 25.7828 22.4052C26.0769 22.4557 26.339 22.6213 26.5113 22.8656C26.6837 23.1099 26.7522 23.4129 26.7018 23.7079C26.6514 24.0028 26.4863 24.2656 26.2427 24.4385L23.206 26.6881L23.231 26.663ZM11.2781 36.689C11.1677 36.7977 11.0362 36.8824 10.8917 36.9377C10.7473 36.9931 10.593 37.018 10.4385 37.0109C10.284 37.0037 10.1326 36.9647 9.99381 36.8963C9.85503 36.8278 9.73182 36.7314 9.63188 36.613C9.53194 36.4946 9.45742 36.3568 9.41297 36.2083C9.36853 36.0597 9.35511 35.9036 9.37356 35.7496C9.39202 35.5956 9.44194 35.447 9.52022 35.3133C9.59849 35.1795 9.70344 35.0633 9.8285 34.9721L18.9072 27.2583C19.1368 27.0907 19.4212 27.0165 19.7031 27.0505C19.9851 27.0845 20.2438 27.2241 20.4273 27.4415C20.6108 27.6588 20.7055 27.9378 20.6924 28.2223C20.6793 28.5067 20.5595 28.7758 20.3568 28.9753L11.2781 36.7016V36.689ZM10.7033 27.7596C10.5892 27.8526 10.458 27.9221 10.3171 27.9643C10.1763 28.0064 10.0285 28.0203 9.88233 28.0052C9.73612 27.9901 9.59431 27.9462 9.465 27.8761C9.33569 27.806 9.22141 27.7111 9.12869 27.5967C9.03597 27.4823 8.96663 27.3507 8.92461 27.2095C8.8826 27.0682 8.86874 26.92 8.88382 26.7734C8.89891 26.6268 8.94264 26.4845 9.01253 26.3549C9.08242 26.2252 9.1771 26.1106 9.29115 26.0176L23.5871 14.3059C23.7002 14.2054 23.8324 14.129 23.9758 14.0811C24.1191 14.0333 24.2707 14.0151 24.4212 14.0276C24.5718 14.0401 24.7182 14.0831 24.8518 14.1539C24.9853 14.2248 25.1032 14.322 25.1982 14.4398C25.2933 14.5576 25.3635 14.6934 25.4048 14.8392C25.446 14.9849 25.4574 15.1376 25.4382 15.2878C25.4191 15.4381 25.3697 15.583 25.2932 15.7136C25.2167 15.8442 25.1146 15.958 24.993 16.0479L10.7033 27.7596ZM5.22979 5.20101H30.9288V71.8178H5.22979V5.18221V5.20101ZM36.0712 5.20101H61.7702V71.8178H36.0712V5.18221V5.20101Z" fill="#000F2C"/>
</g>
<defs>
<clipPath id="clip0_108:21">
<rect width="67" height="77" fill="white"/>
</clipPath>
</defs>
</svg>
