<svg width="81" height="77" viewBox="0 0 81 77" fill="none" xmlns="http://www.w3.org/2000/svg">
<g clip-path="url(#clip0_108:9)">
<path d="M76.8076 77.0008L63.7493 46.6435L61.2444 49.7246L72.4504 76.9876H68.9238L58.667 51.4523C48.1201 58.8166 33.4797 59.0334 22.8142 51.7939L12.9265 77.0008H9.37354L19.9204 50.756C18.3779 49.4421 17.7715 48.2728 16.5718 46.6304L3.55957 77.0008H0L14.4492 43.2209C12.2098 39.7147 10.6201 35.8364 9.75586 31.7704H6.12378C5.5437 31.7704 5.0625 31.0215 5.0625 30.0886C5.0625 29.1558 5.5437 28.4134 6.12378 28.4134H9.15601C9.03735 27.5134 8.93848 26.6003 8.86597 25.6609C8.80664 24.866 8.69458 24.2484 9.23511 23.5455C9.39009 23.3374 9.58787 23.1647 9.81524 23.0389C10.0426 22.9132 10.2943 22.8373 10.5535 22.8163H10.6919L69.6951 22.9411H70.407C70.407 22.9411 70.5059 22.9411 70.519 22.9411C70.8898 22.9393 71.2516 23.0547 71.5525 23.2708C71.8533 23.4868 72.0777 23.7922 72.1934 24.1433C72.2658 24.5981 72.2658 25.0615 72.1934 25.5163C72.134 26.5083 72.0417 27.4871 71.9165 28.42H74.863C75.4497 28.42 75.9243 29.1689 75.9243 30.0952C75.9243 31.0215 75.4497 31.777 74.863 31.777H71.3298C70.4671 35.9015 68.8396 39.8293 66.531 43.3588L81 76.9745L76.8076 77.0008ZM24.2578 19.9783C24.1163 20.1194 23.9483 20.2313 23.7633 20.3076C23.5784 20.3839 23.3802 20.4232 23.1801 20.4232C22.9799 20.4232 22.7817 20.3839 22.5968 20.3076C22.4119 20.2313 22.2438 20.1194 22.1023 19.9783C21.9608 19.8373 21.8485 19.6698 21.7719 19.4855C21.6953 19.3012 21.6559 19.1037 21.6559 18.9042C21.6559 18.7047 21.6953 18.5072 21.7719 18.3229C21.8485 18.1386 21.9608 17.9712 22.1023 17.8301C23.2295 16.7068 22.6956 15.7148 22.1023 14.5454C20.9421 12.4826 19.637 10.0191 21.865 6.176C21.9654 6.00346 22.0989 5.85232 22.258 5.7312C22.417 5.61009 22.5984 5.52139 22.7918 5.47014C22.9852 5.4189 23.1869 5.40613 23.3853 5.43256C23.5837 5.45898 23.7749 5.52409 23.948 5.62417C24.1211 5.72424 24.2728 5.85732 24.3943 6.0158C24.5158 6.17429 24.6048 6.35508 24.6563 6.54785C24.7077 6.74061 24.7205 6.94159 24.694 7.13929C24.6675 7.337 24.6021 7.52756 24.5017 7.7001C23.1174 10.0782 24.0007 11.7206 24.7654 13.1461C25.9585 15.36 26.9802 17.2717 24.2644 19.9783H24.2578ZM48.9375 12.4104C49.1847 12.6999 49.3138 13.0714 49.2994 13.4513C49.2849 13.8312 49.1279 14.1918 48.8594 14.4619C48.591 14.7319 48.2305 14.8917 47.8495 14.9096C47.4685 14.9275 47.0946 14.8022 46.8018 14.5586C44.0793 11.8454 45.1077 9.95998 46.2942 7.72638C47.0654 6.29425 47.9421 4.65846 46.5645 2.27377C46.4597 2.10104 46.3907 1.90923 46.3612 1.70957C46.3318 1.50991 46.3427 1.3064 46.3931 1.11096C46.4436 0.915523 46.5326 0.732077 46.6551 0.571358C46.7775 0.410639 46.9309 0.275875 47.1063 0.174954C47.2817 0.0740323 47.4754 0.00897994 47.6763 -0.0163965C47.8772 -0.0417729 48.0812 -0.0269636 48.2762 0.0271647C48.4713 0.081293 48.6536 0.173653 48.8124 0.29884C48.9712 0.424027 49.1034 0.579526 49.2012 0.756238C51.416 4.59934 50.0977 7.03002 48.9573 9.14537C48.3376 10.295 47.8103 11.287 48.9573 12.4301L48.9375 12.4104ZM59.3657 17.8301C59.5073 17.9712 59.6195 18.1386 59.6961 18.3229C59.7727 18.5072 59.8121 18.7047 59.8121 18.9042C59.8121 19.1037 59.7727 19.3012 59.6961 19.4855C59.6195 19.6698 59.5073 19.8373 59.3657 19.9783C59.2242 20.1194 59.0562 20.2313 58.8712 20.3076C58.6863 20.3839 58.4881 20.4232 58.288 20.4232C58.0878 20.4232 57.8896 20.3839 57.7047 20.3076C57.5198 20.2313 57.3517 20.1194 57.2102 19.9783C54.4944 17.2717 55.5227 15.3797 56.7092 13.1461C57.4739 11.7206 58.3572 10.0782 56.9729 7.7001C56.8725 7.52756 56.8072 7.337 56.7806 7.13929C56.7541 6.94159 56.7669 6.74061 56.8184 6.54785C56.8698 6.35508 56.9588 6.17429 57.0803 6.0158C57.2018 5.85732 57.3535 5.72424 57.5266 5.62417C57.6997 5.52409 57.891 5.45898 58.0893 5.43256C58.2877 5.40613 58.4894 5.4189 58.6828 5.47014C58.8762 5.52139 59.0576 5.61009 59.2166 5.7312C59.3757 5.85232 59.5092 6.00346 59.6096 6.176C61.8376 10.0191 60.5325 12.4498 59.3921 14.5717C58.7791 15.7148 58.2451 16.7068 59.3921 17.8564L59.3657 17.8301ZM34.686 14.6374C34.3993 14.9223 34.0108 15.082 33.6059 15.0813C33.2011 15.0807 32.8131 14.9198 32.5272 14.6341C32.2414 14.3484 32.0811 13.9612 32.0818 13.5577C32.0824 13.1542 32.2438 12.7675 32.5305 12.4826C33.6643 11.3593 33.1304 10.3673 32.5305 9.19792C31.377 7.10885 30.0718 4.67817 32.2998 0.835071C32.5059 0.495013 32.8377 0.249078 33.2237 0.150084C33.6098 0.051089 34.0194 0.10693 34.3646 0.305615C34.7099 0.5043 34.9631 0.829981 35.0701 1.21272C35.177 1.59545 35.129 2.00471 34.9365 2.3526C33.5588 4.7373 34.4355 6.37308 35.2068 7.80521C36.3933 10.0191 37.4216 11.9308 34.6992 14.6374H34.686Z" fill="#000F2C"/>
</g>
<defs>
<clipPath id="clip0_108:9">
<rect width="81" height="77" fill="white"/>
</clipPath>
</defs>
</svg>
