<svg width="73" height="81" viewBox="0 0 73 81" fill="none" xmlns="http://www.w3.org/2000/svg">
<g clip-path="url(#clip0_109:34)">
<path fill-rule="evenodd" clip-rule="evenodd" d="M68.2069 71.6784L49.6939 64.0517L49.878 56.8007L68.2069 64.2165V71.6586V71.6784ZM38.5507 63.1552L39.7077 70.4853L45.8546 55.5878L37.7157 57.9609L40.7596 60.9799L38.5835 63.1552H38.5507ZM33.357 70.07L34.5207 63.2343L32.2723 60.9799L35.1387 58.1059L27.3745 55.6933L33.357 70.07ZM18.4073 26.0698L18.5322 25.9709C18.5258 25.9111 18.5314 25.8506 18.5485 25.793C18.5656 25.7354 18.5939 25.6817 18.6318 25.6351C18.6697 25.5886 18.7164 25.55 18.7693 25.5216C18.8222 25.4932 18.8801 25.4757 18.9398 25.4699H19.3014C21.8325 23.9604 26.4213 22.9716 31.5163 22.5893C32.5675 24.4154 34.2415 25.799 36.23 26.485C38.2145 25.78 39.8911 24.4021 40.97 22.5893C45.7166 22.9518 50.1147 23.9077 52.9679 25.4699H53.3887C53.4488 25.469 53.5085 25.4802 53.5643 25.5026C53.6201 25.5251 53.6708 25.5585 53.7137 25.6008C53.7565 25.6431 53.7905 25.6935 53.8137 25.7492C53.8369 25.8048 53.8489 25.8645 53.8489 25.9247C53.8529 25.9443 53.8529 25.9645 53.8489 25.9841L53.9672 26.0632L53.8357 26.1686L53.6911 27.6848L53.908 29.6953C54.1219 29.7522 54.3243 29.8458 54.5063 29.9721C54.8034 30.1797 55.0468 30.4554 55.2163 30.7763C55.4283 31.1874 55.5621 31.6345 55.6107 32.0947C55.6705 32.6357 55.6705 33.1818 55.6107 33.7228V33.7624C55.5594 34.293 55.4716 34.8194 55.3478 35.3378C55.2118 35.8738 55.0405 36.4001 54.835 36.9133C54.4968 37.8235 53.998 38.6653 53.3624 39.3984C52.9336 39.9086 52.3605 40.2764 51.7188 40.4531L51.5873 40.8881C51.5216 41.1122 51.4361 41.3693 51.3835 41.5934C50.7261 43.8478 50.187 45.621 48.8064 47.3876C48.4974 47.77 48.149 48.1457 47.8335 48.5017C47.5968 48.7456 47.3535 48.9763 47.1037 49.207C47.1105 49.2705 47.1105 49.3346 47.1037 49.3981V53.3532C47.2712 53.2665 47.4554 53.2169 47.6437 53.2078C47.8319 53.1987 48.02 53.2303 48.195 53.3005L69.8899 62.0873C70.1558 62.1727 70.3877 62.3408 70.552 62.5671C70.7163 62.7935 70.8045 63.0664 70.8037 63.3464V71.5532C71.5717 72.929 72.0966 74.4277 72.3552 75.9829C72.8023 78.2768 72.9601 77.5451 72.9601 79.6743C72.9601 80.0239 72.8215 80.3592 72.575 80.6065C72.3284 80.8537 71.9939 80.9926 71.6452 80.9926H1.3538C1.01726 80.9931 0.693336 80.8642 0.448732 80.6325C0.204129 80.4007 0.0574722 80.0837 0.0389627 79.7468C-0.0727988 77.6835 0.0389627 78.5207 0.479435 76.3322C0.753071 74.7459 1.32176 73.2254 2.15586 71.8498V63.3332C2.1556 63.0692 2.23443 62.8111 2.38212 62.5925C2.52981 62.3739 2.73956 62.2048 2.98421 62.1071L24.8895 53.3334H24.9552C25.0339 53.3002 25.1153 53.2737 25.1985 53.2543V49.2993C25.197 49.1577 25.2285 49.0178 25.2905 48.8906L24.8895 48.4951C24.6221 48.2182 24.3657 47.9413 24.1203 47.6645C23.3295 46.724 22.6785 45.6739 22.1875 44.5466C21.6944 43.3666 21.2802 42.1867 20.8332 40.8684L20.6031 40.1696C20.0735 40.0945 19.5775 39.8653 19.1765 39.5104C18.5962 38.998 18.1265 38.3722 17.7959 37.6713C17.5258 37.1142 17.3058 36.534 17.1385 35.9377C16.9623 35.3203 16.8348 34.6899 16.7572 34.0524C16.6782 33.4243 16.6782 32.7887 16.7572 32.1606C16.8107 31.6356 16.9742 31.128 17.2371 30.6708C17.4197 30.3738 17.6642 30.1197 17.9537 29.926C18.1349 29.8102 18.3353 29.7276 18.5454 29.6821L18.7097 28.0012L18.5322 26.2873L18.4073 26.0698ZM65.0842 64.8493C65.4615 64.8493 65.8304 64.9616 66.1441 65.1719C66.4577 65.3823 66.7021 65.6812 66.8462 66.0309C66.9903 66.3806 67.0277 66.7653 66.9536 67.1363C66.8795 67.5073 66.6972 67.8479 66.4299 68.115C66.1627 68.3821 65.8223 68.5636 65.4521 68.6366C65.0818 68.7096 64.6983 68.6708 64.35 68.5251C64.0018 68.3794 63.7045 68.1334 63.4958 67.8182C63.2871 67.5029 63.1763 67.1327 63.1776 66.7543C63.1776 66.5036 63.227 66.2553 63.3229 66.0238C63.4188 65.7922 63.5593 65.5819 63.7365 65.4049C63.9136 65.228 64.1238 65.0878 64.3551 64.9924C64.5863 64.8971 64.8341 64.8484 65.0842 64.8493ZM7.84255 64.8493C8.21904 64.8532 8.58594 64.9688 8.897 65.1815C9.20806 65.3942 9.44934 65.6945 9.59043 66.0445C9.73151 66.3945 9.76607 66.7786 9.68976 67.1483C9.61345 67.518 9.42968 67.8567 9.16163 68.1218C8.89357 68.3869 8.55323 68.5665 8.18352 68.6379C7.81382 68.7094 7.43129 68.6694 7.08419 68.5232C6.73708 68.3769 6.44094 68.1309 6.2331 67.8161C6.02526 67.5013 5.91503 67.1319 5.9163 66.7543C5.9163 66.5036 5.96566 66.2553 6.06155 66.0238C6.15745 65.7922 6.29798 65.5819 6.47511 65.4049C6.65223 65.228 6.86246 65.0878 7.09373 64.9924C7.325 64.8971 7.57277 64.8484 7.82282 64.8493H7.84255ZM23.1604 56.8666L23.3445 64.0517L4.79869 71.6916V64.2231L23.1604 56.8666ZM45.2958 50.6704C44.9474 50.8813 44.4346 51.1911 43.981 51.4416C43.7161 51.5996 43.4391 51.7362 43.1526 51.8503C42.0466 52.3848 40.8845 52.7938 39.688 53.0698C38.5514 53.3419 37.3853 53.4704 36.2168 53.4521C35.2807 53.4324 34.349 53.3175 33.4359 53.1093H33.3965C32.4447 52.8922 31.5124 52.5968 30.609 52.226C29.9471 51.9671 29.2996 51.6722 28.6696 51.3427C28.1174 51.0593 27.5586 50.7363 27.0064 50.3803V53.6762L36.1577 56.5305L45.2892 53.8937V50.6704H45.2958ZM18.4665 22.8661V19.2868L15.5738 16.0634C11.4386 11.4492 12.2867 11.5942 16.6651 10.3483C23.0816 8.56854 27.4271 4.61346 31.2073 2.12836C35.5002 -0.712708 36.8151 -0.712708 41.108 2.12836C44.8882 4.61346 49.2338 8.56854 55.6502 10.3483C60.0483 11.5942 60.8767 11.4492 56.7415 16.0634L53.8489 19.2868V22.8661C50.0356 21.4105 46.0631 20.4147 42.0153 19.8998C42.4655 18.138 42.6385 16.3165 42.5281 14.5012C40.6939 14.666 38.5835 13.954 36.184 12.4511C34.3989 13.8843 32.1407 14.5904 29.8596 14.4287C29.7794 16.267 29.9631 18.1073 30.4052 19.8933C26.3204 20.404 22.3119 21.4066 18.4665 22.8793V22.8661ZM22.6016 28.9636L22.0494 32.2595C22.0399 32.3189 22.0186 32.3759 21.9869 32.4271C21.9552 32.4783 21.9137 32.5226 21.8648 32.5576C21.8159 32.5925 21.7605 32.6174 21.7019 32.6307C21.6433 32.644 21.5827 32.6456 21.5235 32.6352C21.4618 32.6283 21.4029 32.6056 21.3525 32.5693L19.7221 31.4948H19.6367C19.3606 31.4487 19.1568 31.4289 18.9793 31.7321C18.8541 31.9685 18.7823 32.2295 18.7689 32.4968C18.7197 32.9348 18.7197 33.3771 18.7689 33.8151C18.824 34.3302 18.923 34.8397 19.0647 35.3378C19.1993 35.8147 19.3776 36.2781 19.5972 36.7221C19.7989 37.168 20.0872 37.5691 20.4453 37.902C20.5191 37.9762 20.6096 38.0316 20.709 38.0637C20.8085 38.0958 20.9142 38.1036 21.0173 38.0866C21.2605 38.0236 21.5185 38.0542 21.7404 38.1723C21.9745 38.295 22.1531 38.5024 22.2401 38.7524L22.5293 39.6027L22.7397 40.2619C23.5681 42.7141 24.1992 44.5993 25.6258 46.2736C26.2609 47.0072 26.9728 47.6702 27.7492 48.2512C28.5716 48.8774 29.4522 49.4226 30.3789 49.8793H30.4184C30.5959 49.9716 30.78 50.0507 30.964 50.1364L31.5557 50.3737C32.3225 50.6597 33.112 50.8802 33.9159 51.0329C34.6873 51.1826 35.4706 51.2621 36.2563 51.2702C37.1655 51.2768 38.073 51.1907 38.9648 51.0131C39.8651 50.8241 40.7455 50.5504 41.5945 50.1957L42.1139 49.9584C43.075 49.4959 43.9832 48.93 44.8225 48.2709C45.6931 47.6582 46.4876 46.9435 47.1892 46.1418C47.7365 45.443 48.1794 44.668 48.504 43.8413C48.8459 42.9909 49.122 42.0681 49.4244 41.0331L49.523 40.7036C49.6611 40.2487 49.7991 39.7609 49.9635 39.2534C50.027 39.0038 50.1789 38.7859 50.3908 38.6403C50.6051 38.5087 50.859 38.4574 51.1074 38.4953C51.3309 38.5283 51.5873 38.3569 51.8569 38.0537C52.3105 37.4913 52.6662 36.8561 52.9087 36.175C53.0773 35.7451 53.2179 35.3048 53.3295 34.8566C53.4324 34.4228 53.5049 33.9823 53.5464 33.5383V33.4987C53.5794 33.1523 53.5794 32.8036 53.5464 32.4572C53.5276 32.2285 53.4675 32.0051 53.3689 31.798C53.244 31.5805 53.1388 31.4619 53.0402 31.4289C52.9038 31.3827 52.7559 31.3827 52.6195 31.4289L52.0146 31.8178C51.5057 32.1975 50.9271 32.473 50.3119 32.6286C50.1951 32.6634 50.0693 32.6504 49.9621 32.5923C49.8548 32.5342 49.775 32.4358 49.74 32.3188C49.7363 32.2881 49.7363 32.2572 49.74 32.2265L49.431 28.7329C41.2921 32.2726 29.636 32.1672 22.6016 28.9702V28.9636Z" fill="#000F2C"/>
</g>
<defs>
<clipPath id="clip0_109:34">
<rect width="73" height="81" fill="white"/>
</clipPath>
</defs>
</svg>
